<?xml version="1.0" encoding="UTF-8" standalone="no"?>
<svg
   xmlns:dc="http://purl.org/dc/elements/1.1/"
   xmlns:cc="http://creativecommons.org/ns#"
   xmlns:rdf="http://www.w3.org/1999/02/22-rdf-syntax-ns#"
   xmlns:svg="http://www.w3.org/2000/svg"
   xmlns="http://www.w3.org/2000/svg"
   xmlns:sodipodi="http://sodipodi.sourceforge.net/DTD/sodipodi-0.dtd"
   xmlns:inkscape="http://www.inkscape.org/namespaces/inkscape"
   version="1.1"
   x="0px"
   y="0px"
   viewBox="0 0 100 65"
   enable-background="new 0 0 100 100"
   xml:space="preserve"
   id="svg135"
   sodipodi:docname="noun_Gohan_58040.svg"
   inkscape:version="1.0.2 (e86c870879, 2021-01-15)"
   width="100"
   height="65"><metadata
     id="metadata141"><rdf:RDF><cc:Work
         rdf:about=""><dc:format>image/svg+xml</dc:format><dc:type
           rdf:resource="http://purl.org/dc/dcmitype/StillImage" /><dc:title></dc:title></cc:Work></rdf:RDF></metadata><defs
     id="defs139" /><sodipodi:namedview
     pagecolor="#ffffff"
     bordercolor="#666666"
     borderopacity="1"
     objecttolerance="10"
     gridtolerance="10"
     guidetolerance="10"
     inkscape:pageopacity="0"
     inkscape:pageshadow="2"
     inkscape:window-width="1366"
     inkscape:window-height="718"
     id="namedview137"
     showgrid="false"
     inkscape:zoom="2.308"
     inkscape:cx="-27.019546"
     inkscape:cy="63.322992"
     inkscape:window-x="0"
     inkscape:window-y="0"
     inkscape:window-maximized="1"
     inkscape:current-layer="svg135"
     inkscape:document-rotation="0" /><path
     fill="#000000"
     d="M 87.977,20.796 C 86.842,18.105 79.405,11.905 73.028,10.878 71.293,10.701 69.237,11.976 65.377,13.853 66.439,9.815 72.674,6.804 76.075,5.068 70.903,2.801 60.346,4.997 59.284,5.422 c -1.062,0.425 -3.33,6.376 -3.33,6.376 0,0 -6.872,-2.621 -7.723,-2.762 C 47.381,8.894 43.91,9.46 41.855,9.673 39.8,9.886 37.887,13.995 37.887,13.995 37.284,11.055 39.8,5.847 39.8,5.847 c 0,0 -4.604,3.543 -5.03,4.535 -0.426,0.991 0.567,4.676 0.567,4.676 0,0 -1.364,-0.797 -2.604,-0.903 -0.359,-0.03 -3.967,1.417 -4.463,1.913 -0.497,0.496 -2.01,2.32 -2.01,2.32 0,0 3.621,-1.63 4.401,-1.63 0.778,0 2.125,0.708 2.125,0.708 0,0 -2.569,1.081 -3.968,2.126 -0.921,0.762 -4.565,11.305 -4.503,12.508 0.043,0.837 1.669,3.007 1.669,3.007 0,0 -0.548,-0.127 -1.735,0 -1.487,0.373 -4.216,4.394 -4.216,4.394 1.861,-1.647 6.04,-1.701 6.802,-1.418 0.398,0.147 1.63,2.836 1.63,2.836 0,0 0.446,0.015 1.205,0.038 0.029,-2.014 0.462,-4.38 1.531,-4.589 0.827,-0.164 -0.44,-3.195 -0.094,-2.679 -0.033,-0.364 1.275,-1.837 1.275,-2.194 0,-7.583 7.832,-8.455 15.398,-8.455 7.924,0 15.237,3.636 14.5,11.785 0.347,-0.521 1.25,1.379 2.08,1.543 1.042,0.205 1.479,2.465 1.526,4.445 0.708,-1.05 3.124,-0.996 3.741,-1.03 0.469,-0.682 0.248,-3.436 -0.425,-4.818 1.983,-0.707 8.431,1.561 10.414,3.402 -0.284,-1.561 -4.302,-9.697 -6.447,-10.699 -1.063,-0.496 -1.595,-0.449 -4.394,-1.274 7.688,-4.287 15.481,-6.696 19.202,-5.598 z"
     id="path125" /><path
     fill="#000000"
     d="m 48.083,59.941 c -0.147,0 -0.252,-0.004 -0.304,-0.006 -0.052,0.002 -0.157,0.006 -0.304,0.006 -0.876,0 -2.529,-0.102 -3.751,-0.78 -3.848,-2.138 -8.517,-7.17 -8.997,-8.082 -0.214,-0.406 -0.416,-0.986 -0.615,-1.765 -0.248,-0.063 -0.504,-0.176 -0.768,-0.332 -1.076,-0.641 -3.619,-3.676 -4.134,-5.418 -0.401,-1.354 -0.409,-5.223 0.635,-6.944 0.258,-0.429 0.572,-0.716 0.935,-0.863 -0.006,-0.264 -0.11,-0.76 -0.311,-1.478 -0.14,-0.497 -0.217,-0.771 0.013,-1.073 l 0.066,-0.086 c 0.131,-0.265 0.345,-0.572 0.64,-0.99 0.164,-0.232 0.404,-0.574 0.484,-0.73 0.031,-3.664 1.815,-6.231 5.306,-7.634 3.149,-1.264 7.227,-1.435 10.801,-1.435 5.436,0 10.064,1.653 12.698,4.537 1.817,1.99 2.674,4.467 2.551,7.366 0.236,0.168 0.453,0.418 0.688,0.689 0.196,0.227 0.604,0.699 0.782,0.748 0.48,0.096 0.891,0.414 1.213,0.945 1.044,1.723 1.037,5.59 0.639,6.947 -0.518,1.744 -3.061,4.776 -4.135,5.418 -0.265,0.156 -0.521,0.268 -0.77,0.332 -0.199,0.776 -0.401,1.356 -0.615,1.764 -0.479,0.91 -5.145,5.943 -8.998,8.082 -1.223,0.682 -2.873,0.782 -3.749,0.782 z m -0.304,-1.421 0.035,0.002 c 0.009,0 0.107,0.004 0.269,0.004 0.464,0 2.056,-0.043 3.062,-0.603 3.664,-2.032 8.069,-6.834 8.433,-7.504 0.135,-0.256 0.348,-0.793 0.604,-1.905 l 0.137,-0.591 0.623,0.043 c 0.063,0 0.242,-0.021 0.55,-0.2 0.753,-0.449 3.077,-3.177 3.499,-4.603 0.355,-1.205 0.15,-4.522 -0.419,-5.816 -0.119,-0.197 0.075,-0.461 0.022,-0.472 0.449,-1.094 -1.509,-0.516 -1.949,-1.023 -0.033,-0.041 -0.072,-0.084 -0.111,-0.129 l -1.208,1.803 0.25,-2.766 c 0.251,-2.773 -0.47,-5.105 -2.144,-6.938 -2.365,-2.589 -6.613,-4.075 -11.65,-4.075 -3.237,0 -7.331,0.152 -10.272,1.333 -3.014,1.21 -4.417,3.248 -4.417,6.414 0,0.381 -0.241,0.738 -0.744,1.451 -0.166,0.236 -0.434,0.615 -0.523,0.795 l 0.016,0.172 c 0.31,1.111 -0.124,1.791 -0.497,2.4 -0.15,0.242 -0.067,0.555 -0.344,0.609 -0.055,0.011 0.092,0.213 -0.028,0.41 -0.535,1.371 -0.755,4.625 -0.399,5.831 0.421,1.426 2.746,4.151 3.499,4.603 0.307,0.182 0.484,0.2 0.547,0.2 h 0.019 l 0.604,-0.043 0.137,0.591 c 0.257,1.112 0.472,1.649 0.605,1.905 0.363,0.67 4.771,5.472 8.432,7.504 1.006,0.56 2.599,0.603 3.063,0.603 0.162,0 0.26,-0.004 0.269,-0.004 z"
     id="path127" /><path
     fill="#000000"
     d="m 52.146,37.879 c 0,0 6.934,-4.344 7.354,-5.277 0,0 1.812,3.654 -1.759,7.472 0.545,-0.009 1.1,-0.101 1.614,-0.217 l 2.492,-2.807 c 0.348,-0.517 0.939,-0.901 1.768,-0.739 0.895,0.175 1.346,1.863 1.485,3.59 l 2.991,-2.467 -16.862,-18.903 -18.072,5.507 -5.691,11.797 3.085,3.374 c 0.186,-1.521 0.63,-2.885 1.429,-3.042 0.382,-0.075 0.707,-0.023 0.987,0.094 0.339,-1.225 0.939,-2.411 1.98,-2.663 0.445,1.244 1.575,4.045 3.409,6.115 -0.564,-2.285 -0.9,-6.955 0.388,-9.084 1.691,-1.895 4.362,-4.196 4.362,-4.196 0,0 -2.65,6.129 -0.498,13.247 0.985,-1.803 7.572,-12.137 13.341,-11.225 1.287,5.088 -3.803,9.424 -3.803,9.424 z"
     id="path129" /></svg>
